<?xml version="1.0" encoding="utf-8"?>
<!-- Generated by IcoMoon.io -->
<!DOCTYPE svg PUBLIC "-//W3C//DTD SVG 1.1//EN" "http://www.w3.org/Graphics/SVG/1.1/DTD/svg11.dtd">
<svg version="1.1" xmlns="http://www.w3.org/2000/svg" xmlns:xlink="http://www.w3.org/1999/xlink" width="128" height="128" viewBox="0 0 128 128">
  <path d="M124.033 108.924l-30.319-25.787c-3.134-2.821-6.486-4.116-9.194-3.991 7.157-8.383 11.48-19.26 11.48-31.147 0-26.51-21.49-48-48-48-26.509 0-48 21.49-48 48 0 26.51 21.49 48 48 48 11.887 0 22.764-4.323 31.147-11.481-0.125 2.708 1.17 6.060 3.991 9.194l25.787 30.319c4.415 4.906 11.628 5.319 16.028 0.919s3.987-11.612-0.919-16.028zM48 80c-17.673 0-32-14.327-32-32s14.327-32 32-32 32 14.327 32 32-14.327 32-32 32z" fill="#ffffff" />
</svg>
